<svg width="294" height="29" viewBox="0 0 294 29" fill="none" xmlns="http://www.w3.org/2000/svg">
<path d="M13.3028 28.324C10.8068 28.324 8.62278 27.796 6.75077 26.74C4.87877 25.684 3.43877 24.172 2.43077 22.204C1.42277 20.236 0.918774 17.932 0.918774 15.292C0.918774 12.652 1.42277 10.36 2.43077 8.416C3.43877 6.448 4.87877 4.936 6.75077 3.88C8.62278 2.824 10.8068 2.296 13.3028 2.296C16.4468 2.296 19.1588 3.16 21.4388 4.888C21.7988 5.176 22.0508 5.464 22.1948 5.752C22.3388 6.04 22.4108 6.4 22.4108 6.832C22.4108 7.456 22.2308 7.996 21.8708 8.452C21.5348 8.884 21.1148 9.1 20.6108 9.1C20.2748 9.1 19.9748 9.064 19.7108 8.992C19.4708 8.896 19.1948 8.74 18.8828 8.524C17.9228 7.9 17.0348 7.456 16.2188 7.192C15.4028 6.904 14.5268 6.76 13.5908 6.76C11.2868 6.76 9.54677 7.48 8.37077 8.92C7.21877 10.336 6.64277 12.46 6.64277 15.292C6.64277 21.004 8.95877 23.86 13.5908 23.86C14.4788 23.86 15.3188 23.728 16.1108 23.464C16.9028 23.176 17.8268 22.72 18.8828 22.096C19.2428 21.88 19.5428 21.736 19.7828 21.664C20.0228 21.568 20.2988 21.52 20.6108 21.52C21.1148 21.52 21.5348 21.748 21.8708 22.204C22.2308 22.636 22.4108 23.164 22.4108 23.788C22.4108 24.22 22.3268 24.592 22.1588 24.904C22.0148 25.192 21.7748 25.468 21.4388 25.732C19.1588 27.46 16.4468 28.324 13.3028 28.324ZM33.2096 9.892C35.8017 9.892 37.7217 10.528 38.9696 11.8C40.2177 13.048 40.8417 14.968 40.8417 17.56V25.696C40.8417 26.488 40.6137 27.112 40.1577 27.568C39.7017 28 39.0656 28.216 38.2497 28.216C37.4817 28.216 36.8577 27.988 36.3776 27.532C35.9217 27.052 35.6937 26.44 35.6937 25.696V25.444C35.3336 26.332 34.7336 27.028 33.8936 27.532C33.0536 28.036 32.0696 28.288 30.9416 28.288C29.7416 28.288 28.6496 28.048 27.6656 27.568C26.7056 27.088 25.9376 26.416 25.3616 25.552C24.8096 24.688 24.5336 23.728 24.5336 22.672C24.5336 21.376 24.8576 20.356 25.5056 19.612C26.1776 18.868 27.2456 18.328 28.7096 17.992C30.1736 17.656 32.1776 17.488 34.7216 17.488H35.6576V16.84C35.6576 15.832 35.4296 15.1 34.9736 14.644C34.5416 14.188 33.8096 13.96 32.7777 13.96C31.7456 13.96 30.2576 14.32 28.3136 15.04C27.7616 15.304 27.2936 15.436 26.9096 15.436C26.3816 15.436 25.9616 15.256 25.6496 14.896C25.3376 14.512 25.1816 14.02 25.1816 13.42C25.1816 12.94 25.2896 12.544 25.5056 12.232C25.7216 11.92 26.0696 11.632 26.5496 11.368C27.3896 10.912 28.4096 10.552 29.6096 10.288C30.8336 10.024 32.0336 9.892 33.2096 9.892ZM32.1296 24.544C33.1856 24.544 34.0376 24.196 34.6857 23.5C35.3336 22.78 35.6576 21.856 35.6576 20.728V20.116H35.0456C33.1016 20.116 31.7336 20.272 30.9416 20.584C30.1736 20.896 29.7896 21.46 29.7896 22.276C29.7896 22.948 30.0056 23.5 30.4376 23.932C30.8936 24.34 31.4576 24.544 32.1296 24.544ZM59.99 2.44C60.83 2.44 61.502 2.668 62.006 3.124C62.534 3.58 62.798 4.18 62.798 4.924V25.66C62.798 26.428 62.546 27.052 62.042 27.532C61.562 27.988 60.914 28.216 60.098 28.216C59.282 28.216 58.622 27.988 58.118 27.532C57.638 27.052 57.398 26.428 57.398 25.66V25.372C56.87 26.284 56.114 27.004 55.13 27.532C54.17 28.036 53.078 28.288 51.854 28.288C50.342 28.288 48.986 27.904 47.786 27.136C46.61 26.344 45.686 25.252 45.014 23.86C44.366 22.444 44.042 20.824 44.042 19C44.042 17.176 44.366 15.58 45.014 14.212C45.686 12.82 46.61 11.752 47.786 11.008C48.962 10.264 50.318 9.892 51.854 9.892C53.054 9.892 54.134 10.144 55.094 10.648C56.078 11.152 56.834 11.86 57.362 12.772V4.816C57.362 4.096 57.602 3.52 58.082 3.088C58.562 2.656 59.198 2.44 59.99 2.44ZM53.438 24.148C54.71 24.148 55.682 23.716 56.354 22.852C57.05 21.964 57.398 20.704 57.398 19.072C57.398 17.44 57.05 16.192 56.354 15.328C55.682 14.464 54.71 14.032 53.438 14.032C52.166 14.032 51.182 14.464 50.486 15.328C49.79 16.168 49.442 17.392 49.442 19C49.442 20.632 49.79 21.904 50.486 22.816C51.182 23.704 52.166 24.148 53.438 24.148ZM74.9401 9.892C77.5321 9.892 79.4521 10.528 80.7001 11.8C81.9481 13.048 82.5721 14.968 82.5721 17.56V25.696C82.5721 26.488 82.3441 27.112 81.8881 27.568C81.4321 28 80.7961 28.216 79.9801 28.216C79.2121 28.216 78.5881 27.988 78.1081 27.532C77.6521 27.052 77.4241 26.44 77.4241 25.696V25.444C77.0641 26.332 76.4641 27.028 75.6241 27.532C74.7841 28.036 73.8001 28.288 72.6721 28.288C71.4721 28.288 70.3801 28.048 69.3961 27.568C68.4361 27.088 67.6681 26.416 67.0921 25.552C66.5401 24.688 66.2641 23.728 66.2641 22.672C66.2641 21.376 66.5881 20.356 67.2361 19.612C67.9081 18.868 68.9761 18.328 70.4401 17.992C71.9041 17.656 73.9081 17.488 76.4521 17.488H77.3881V16.84C77.3881 15.832 77.1601 15.1 76.7041 14.644C76.2721 14.188 75.5401 13.96 74.5081 13.96C73.4761 13.96 71.9881 14.32 70.0441 15.04C69.4921 15.304 69.0241 15.436 68.6401 15.436C68.1121 15.436 67.6921 15.256 67.3801 14.896C67.0681 14.512 66.9121 14.02 66.9121 13.42C66.9121 12.94 67.0201 12.544 67.2361 12.232C67.4521 11.92 67.8001 11.632 68.2801 11.368C69.1201 10.912 70.1401 10.552 71.3401 10.288C72.5641 10.024 73.7641 9.892 74.9401 9.892ZM73.8601 24.544C74.9161 24.544 75.7681 24.196 76.4161 23.5C77.0641 22.78 77.3881 21.856 77.3881 20.728V20.116H76.7761C74.8321 20.116 73.4641 20.272 72.6721 20.584C71.9041 20.896 71.5201 21.46 71.5201 22.276C71.5201 22.948 71.7361 23.5 72.1681 23.932C72.6241 24.34 73.1881 24.544 73.8601 24.544ZM93.3325 28.288C91.8685 28.288 90.5965 28.168 89.5165 27.928C88.4365 27.688 87.4885 27.304 86.6725 26.776C86.3125 26.56 86.0365 26.272 85.8445 25.912C85.6525 25.552 85.5565 25.144 85.5565 24.688C85.5565 24.136 85.7125 23.68 86.0245 23.32C86.3365 22.936 86.7205 22.744 87.1765 22.744C87.4885 22.744 87.8005 22.804 88.1125 22.924C88.4245 23.02 88.7485 23.14 89.0845 23.284C89.7565 23.596 90.4165 23.848 91.0645 24.04C91.7125 24.208 92.5165 24.292 93.4765 24.292C94.3165 24.292 94.9645 24.16 95.4205 23.896C95.9005 23.632 96.1405 23.272 96.1405 22.816C96.1405 22.48 96.0325 22.216 95.8165 22.024C95.6245 21.808 95.2525 21.616 94.7005 21.448C94.1485 21.28 93.2725 21.076 92.0725 20.836C89.9365 20.428 88.4005 19.816 87.4645 19C86.5285 18.184 86.0605 17.044 86.0605 15.58C86.0605 14.5 86.3845 13.528 87.0325 12.664C87.7045 11.8 88.6165 11.128 89.7685 10.648C90.9205 10.144 92.2165 9.892 93.6565 9.892C94.6885 9.892 95.6965 10.024 96.6805 10.288C97.6645 10.552 98.5405 10.924 99.3085 11.404C100.052 11.86 100.424 12.532 100.424 13.42C100.424 13.996 100.268 14.476 99.9565 14.86C99.6445 15.244 99.2605 15.436 98.8045 15.436C98.2525 15.436 97.5925 15.22 96.8245 14.788C96.2245 14.476 95.6725 14.248 95.1685 14.104C94.6885 13.936 94.1125 13.852 93.4405 13.852C92.6965 13.852 92.1085 13.996 91.6765 14.284C91.2445 14.548 91.0285 14.92 91.0285 15.4C91.0285 15.904 91.2805 16.288 91.7845 16.552C92.2885 16.816 93.2605 17.08 94.7005 17.344C96.3085 17.656 97.5685 18.04 98.4805 18.496C99.3925 18.928 100.052 19.48 100.46 20.152C100.868 20.824 101.072 21.676 101.072 22.708C101.072 24.412 100.364 25.768 98.9485 26.776C97.5565 27.784 95.6845 28.288 93.3325 28.288ZM113.832 24.256C114.552 24.304 115.08 24.484 115.416 24.796C115.752 25.108 115.92 25.564 115.92 26.164C115.92 26.86 115.644 27.388 115.092 27.748C114.54 28.108 113.748 28.252 112.716 28.18L111.708 28.108C107.508 27.772 105.408 25.576 105.408 21.52V14.392H103.968C103.176 14.392 102.576 14.224 102.168 13.888C101.76 13.528 101.556 13.024 101.556 12.376C101.556 11.704 101.76 11.2 102.168 10.864C102.576 10.504 103.176 10.324 103.968 10.324H105.408V7.516C105.408 6.724 105.648 6.1 106.128 5.644C106.632 5.188 107.304 4.96 108.144 4.96C108.984 4.96 109.644 5.188 110.124 5.644C110.604 6.1 110.844 6.724 110.844 7.516V10.324H113.364C114.996 10.324 115.812 11.008 115.812 12.376C115.812 13.024 115.608 13.528 115.2 13.888C114.792 14.224 114.18 14.392 113.364 14.392H110.844V21.916C110.844 22.636 111.012 23.188 111.348 23.572C111.684 23.932 112.176 24.136 112.824 24.184L113.832 24.256ZM128.474 9.964C129.194 9.916 129.758 10.084 130.166 10.468C130.598 10.828 130.814 11.38 130.814 12.124C130.814 12.916 130.622 13.504 130.238 13.888C129.854 14.272 129.17 14.512 128.186 14.608L127.106 14.716C125.786 14.86 124.826 15.292 124.226 16.012C123.65 16.732 123.362 17.656 123.362 18.784V25.66C123.362 26.5 123.098 27.136 122.57 27.568C122.066 28 121.43 28.216 120.662 28.216C119.87 28.216 119.21 28 118.682 27.568C118.178 27.136 117.926 26.5 117.926 25.66V12.448C117.926 11.656 118.19 11.044 118.718 10.612C119.246 10.18 119.882 9.964 120.626 9.964C121.346 9.964 121.946 10.18 122.426 10.612C122.906 11.02 123.146 11.596 123.146 12.34V13.312C123.578 12.28 124.226 11.488 125.09 10.936C125.978 10.384 126.938 10.072 127.97 10L128.474 9.964ZM140.331 9.892C142.923 9.892 144.843 10.528 146.091 11.8C147.339 13.048 147.963 14.968 147.963 17.56V25.696C147.963 26.488 147.735 27.112 147.279 27.568C146.823 28 146.187 28.216 145.371 28.216C144.603 28.216 143.979 27.988 143.499 27.532C143.043 27.052 142.815 26.44 142.815 25.696V25.444C142.455 26.332 141.855 27.028 141.015 27.532C140.175 28.036 139.191 28.288 138.063 28.288C136.863 28.288 135.771 28.048 134.787 27.568C133.827 27.088 133.059 26.416 132.483 25.552C131.931 24.688 131.655 23.728 131.655 22.672C131.655 21.376 131.979 20.356 132.627 19.612C133.299 18.868 134.367 18.328 135.831 17.992C137.295 17.656 139.299 17.488 141.843 17.488H142.779V16.84C142.779 15.832 142.551 15.1 142.095 14.644C141.663 14.188 140.931 13.96 139.899 13.96C138.867 13.96 137.379 14.32 135.435 15.04C134.883 15.304 134.415 15.436 134.031 15.436C133.503 15.436 133.083 15.256 132.771 14.896C132.459 14.512 132.303 14.02 132.303 13.42C132.303 12.94 132.411 12.544 132.627 12.232C132.843 11.92 133.191 11.632 133.671 11.368C134.511 10.912 135.531 10.552 136.731 10.288C137.955 10.024 139.155 9.892 140.331 9.892ZM139.251 24.544C140.307 24.544 141.159 24.196 141.807 23.5C142.455 22.78 142.779 21.856 142.779 20.728V20.116H142.167C140.223 20.116 138.855 20.272 138.063 20.584C137.295 20.896 136.911 21.46 136.911 22.276C136.911 22.948 137.127 23.5 137.559 23.932C138.015 24.34 138.579 24.544 139.251 24.544ZM162.575 9.964C163.295 9.916 163.859 10.084 164.267 10.468C164.699 10.828 164.915 11.38 164.915 12.124C164.915 12.916 164.723 13.504 164.339 13.888C163.955 14.272 163.271 14.512 162.287 14.608L161.207 14.716C159.887 14.86 158.927 15.292 158.327 16.012C157.751 16.732 157.463 17.656 157.463 18.784V25.66C157.463 26.5 157.199 27.136 156.671 27.568C156.167 28 155.531 28.216 154.763 28.216C153.971 28.216 153.311 28 152.783 27.568C152.279 27.136 152.027 26.5 152.027 25.66V12.448C152.027 11.656 152.291 11.044 152.819 10.612C153.347 10.18 153.983 9.964 154.727 9.964C155.447 9.964 156.047 10.18 156.527 10.612C157.007 11.02 157.247 11.596 157.247 12.34V13.312C157.679 12.28 158.327 11.488 159.191 10.936C160.079 10.384 161.039 10.072 162.071 10L162.575 9.964Z" fill="#2E4A7D"/>
<path d="M199.499 2.44C200.291 2.44 200.927 2.704 201.407 3.232C201.911 3.736 202.163 4.396 202.163 5.212V25.66C202.163 26.452 201.935 27.076 201.479 27.532C201.023 27.988 200.423 28.216 199.679 28.216C198.959 28.216 198.371 27.988 197.915 27.532C197.459 27.076 197.231 26.452 197.231 25.66V12.952L192.119 22.564C191.783 23.188 191.411 23.644 191.003 23.932C190.619 24.22 190.151 24.364 189.599 24.364C189.071 24.364 188.603 24.22 188.195 23.932C187.787 23.644 187.415 23.188 187.079 22.564L181.967 13.132V25.66C181.967 26.428 181.739 27.052 181.283 27.532C180.827 27.988 180.227 28.216 179.483 28.216C178.763 28.216 178.175 27.988 177.719 27.532C177.263 27.076 177.035 26.452 177.035 25.66V5.212C177.035 4.396 177.275 3.736 177.755 3.232C178.259 2.704 178.907 2.44 179.699 2.44C180.851 2.44 181.727 3.052 182.327 4.276L189.635 18.136L196.907 4.276C197.555 3.052 198.419 2.44 199.499 2.44ZM221.02 22.744C221.5 22.744 221.884 22.936 222.172 23.32C222.484 23.704 222.64 24.196 222.64 24.796C222.64 25.204 222.52 25.588 222.28 25.948C222.04 26.284 221.704 26.572 221.272 26.812C220.456 27.244 219.508 27.604 218.428 27.892C217.348 28.156 216.352 28.288 215.44 28.288C213.52 28.288 211.84 27.916 210.4 27.172C208.984 26.428 207.892 25.372 207.124 24.004C206.356 22.612 205.972 20.98 205.972 19.108C205.972 17.308 206.344 15.712 207.088 14.32C207.832 12.928 208.864 11.848 210.184 11.08C211.504 10.288 213.004 9.892 214.684 9.892C216.292 9.892 217.696 10.252 218.896 10.972C220.12 11.668 221.068 12.676 221.74 13.996C222.412 15.292 222.748 16.816 222.748 18.568C222.748 19.096 222.616 19.504 222.352 19.792C222.112 20.056 221.764 20.188 221.308 20.188H211.228C211.396 21.604 211.828 22.636 212.524 23.284C213.22 23.908 214.216 24.22 215.512 24.22C216.208 24.22 216.832 24.136 217.384 23.968C217.936 23.8 218.548 23.572 219.22 23.284C219.556 23.14 219.88 23.02 220.192 22.924C220.504 22.804 220.78 22.744 221.02 22.744ZM214.828 13.636C213.796 13.636 212.968 13.972 212.344 14.644C211.72 15.292 211.348 16.24 211.228 17.488H218.176C218.104 16.216 217.78 15.256 217.204 14.608C216.652 13.96 215.86 13.636 214.828 13.636ZM215.728 7.876C215.44 8.092 215.128 8.2 214.792 8.2C214.408 8.2 214.084 8.068 213.82 7.804C213.556 7.54 213.424 7.228 213.424 6.868C213.424 6.556 213.532 6.244 213.748 5.932L216.844 1.792C217.444 0.975999 218.164 0.567999 219.004 0.567999C219.604 0.567999 220.132 0.783999 220.588 1.216C221.044 1.648 221.272 2.152 221.272 2.728C221.272 3.448 220.888 4.096 220.12 4.672L215.728 7.876ZM241.115 2.44C241.955 2.44 242.627 2.668 243.131 3.124C243.659 3.58 243.923 4.18 243.923 4.924V25.66C243.923 26.428 243.671 27.052 243.167 27.532C242.687 27.988 242.039 28.216 241.223 28.216C240.407 28.216 239.747 27.988 239.243 27.532C238.763 27.052 238.523 26.428 238.523 25.66V25.372C237.995 26.284 237.239 27.004 236.255 27.532C235.295 28.036 234.203 28.288 232.979 28.288C231.467 28.288 230.111 27.904 228.911 27.136C227.735 26.344 226.811 25.252 226.139 23.86C225.491 22.444 225.167 20.824 225.167 19C225.167 17.176 225.491 15.58 226.139 14.212C226.811 12.82 227.735 11.752 228.911 11.008C230.087 10.264 231.443 9.892 232.979 9.892C234.179 9.892 235.259 10.144 236.219 10.648C237.203 11.152 237.959 11.86 238.487 12.772V4.816C238.487 4.096 238.727 3.52 239.207 3.088C239.687 2.656 240.323 2.44 241.115 2.44ZM234.563 24.148C235.835 24.148 236.807 23.716 237.479 22.852C238.175 21.964 238.523 20.704 238.523 19.072C238.523 17.44 238.175 16.192 237.479 15.328C236.807 14.464 235.835 14.032 234.563 14.032C233.291 14.032 232.307 14.464 231.611 15.328C230.915 16.168 230.567 17.392 230.567 19C230.567 20.632 230.915 21.904 231.611 22.816C232.307 23.704 233.291 24.148 234.563 24.148ZM250.845 28.216C250.053 28.216 249.393 28 248.865 27.568C248.361 27.136 248.109 26.5 248.109 25.66V12.52C248.109 11.68 248.373 11.044 248.901 10.612C249.429 10.18 250.077 9.964 250.845 9.964C251.613 9.964 252.249 10.18 252.753 10.612C253.281 11.044 253.545 11.68 253.545 12.52V25.66C253.545 26.5 253.281 27.136 252.753 27.568C252.249 28 251.613 28.216 250.845 28.216ZM250.845 7.084C249.885 7.084 249.129 6.844 248.577 6.364C248.025 5.86 247.749 5.188 247.749 4.348C247.749 3.508 248.025 2.848 248.577 2.368C249.129 1.888 249.885 1.648 250.845 1.648C251.781 1.648 252.525 1.9 253.077 2.404C253.653 2.884 253.941 3.532 253.941 4.348C253.941 5.188 253.665 5.86 253.113 6.364C252.561 6.844 251.805 7.084 250.845 7.084ZM265.879 28.288C264.055 28.288 262.459 27.916 261.091 27.172C259.723 26.428 258.667 25.372 257.923 24.004C257.203 22.636 256.843 21.028 256.843 19.18C256.843 17.332 257.227 15.712 257.995 14.32C258.787 12.904 259.891 11.812 261.307 11.044C262.723 10.276 264.355 9.892 266.203 9.892C267.163 9.892 268.123 10.024 269.083 10.288C270.067 10.552 270.943 10.924 271.711 11.404C272.455 11.86 272.827 12.532 272.827 13.42C272.827 14.044 272.683 14.56 272.395 14.968C272.107 15.352 271.723 15.544 271.243 15.544C270.931 15.544 270.631 15.496 270.343 15.4C270.079 15.28 269.719 15.112 269.263 14.896C268.759 14.632 268.303 14.428 267.895 14.284C267.511 14.14 267.067 14.068 266.563 14.068C265.219 14.068 264.187 14.5 263.467 15.364C262.771 16.204 262.423 17.44 262.423 19.072C262.423 20.704 262.771 21.952 263.467 22.816C264.187 23.68 265.219 24.112 266.563 24.112C267.067 24.112 267.511 24.052 267.895 23.932C268.279 23.788 268.747 23.572 269.299 23.284C269.755 23.068 270.115 22.912 270.379 22.816C270.643 22.696 270.931 22.636 271.243 22.636C271.699 22.636 272.071 22.84 272.359 23.248C272.671 23.656 272.827 24.172 272.827 24.796C272.827 25.684 272.455 26.344 271.711 26.776C270.943 27.256 270.055 27.628 269.047 27.892C268.039 28.156 266.983 28.288 265.879 28.288ZM283.992 28.288C282.12 28.288 280.476 27.916 279.06 27.172C277.644 26.404 276.552 25.336 275.784 23.968C275.016 22.576 274.632 20.944 274.632 19.072C274.632 17.2 275.016 15.58 275.784 14.212C276.552 12.82 277.644 11.752 279.06 11.008C280.476 10.264 282.12 9.892 283.992 9.892C285.864 9.892 287.508 10.264 288.924 11.008C290.34 11.752 291.432 12.82 292.2 14.212C292.968 15.58 293.352 17.2 293.352 19.072C293.352 20.944 292.968 22.576 292.2 23.968C291.432 25.336 290.34 26.404 288.924 27.172C287.508 27.916 285.864 28.288 283.992 28.288ZM283.992 24.148C286.632 24.148 287.952 22.456 287.952 19.072C287.952 17.368 287.604 16.096 286.908 15.256C286.236 14.416 285.264 13.996 283.992 13.996C281.352 13.996 280.032 15.688 280.032 19.072C280.032 22.456 281.352 24.148 283.992 24.148Z" fill="#FF738A"/>
</svg>
